<svg
  xmlns="http://www.w3.org/2000/svg"
  width="250"
  height="250"
  viewBox="0 0 250 250"
  fill="none"
  class="beer"
>
  <style>
    .a {
      fill: white;
    }
  </style>
  <g clip-path="url(#clip0)">
    <path
      d="M33.9 113.3C26.5 113.3 20.7 107.5 20.7 100.1V48.2C20.7 37.1 30.2 28.1 41.3 28.6 46.6 28.6 51.9 31.2 55.6 34.9 55.1 32.8 54.5 30.7 54.5 28.1 55.1 14.8 66.2 4.2 79.4 4.2 89.5 4.2 98.5 11.1 101.7 20.7 111.7 11.6 127.1 12.7 136.1 23.3 137.1 24.9 138.7 26.5 139.3 28.1 143 25.4 146.7 24.4 151.4 24.4 162.6 24.4 171.6 33.4 171.6 44.5 171.6 49.2 170 53.5 166.8 57.2L165.2 59.3H127.6C127.6 59.8 127.6 59.8 127.6 60.4 127.6 62.5 127.6 64.1 127.6 66.2 127.6 67.2 127.6 68.3 127.6 68.8 127.6 82.1 116.5 92.7 102.7 92.7 91.6 92.7 81.5 84.2 79.4 73.1 74.7 83.1 62.5 87.4 52.4 82.6 50.3 81.5 48.7 80.5 47.1 78.9V100.6C47.1 108 41.3 113.8 33.9 113.3Z"
      class="a"
    />
    <path
      d="M127.6 59.3H107C107 59.8 107 59.8 107 60.4 107 62.5 107 64.1 107 66.2 107 67.2 107 68.3 107 68.8 107 77.8 101.1 86.3 93.2 90 96.4 91.6 100.1 92.1 103.3 92.1 116.5 92.1 127.6 81.5 127.6 68.3 127.6 67.8 127.6 66.7 127.6 65.7 127.6 63.5 127.6 62 127.6 59.8 127.6 59.8 127.6 59.8 127.6 59.3Z"
      class="a"
    />
    <path
      d="M151.4 24.9C147.7 24.9 144.6 25.9 141.4 27.5 150.9 32.8 154.1 44.5 148.8 54 148.3 55.1 147.2 56.1 146.7 57.2L145.1 59.3H165.7L167.3 57.2C170.5 53.5 172.1 49.2 172.1 44.5 171.6 33.9 162.6 24.9 151.4 24.9Z"
      class="a"
    />
    <path
      d="M57.2 244.6C47.1 245.7 38.1 238.8 37.1 228.8 37.1 227.2 37.1 226.1 37.1 224.5V113.8L40.2 112.3C45 110.1 47.7 105.4 47.7 100.6V81L54.5 83.7C56.7 84.2 58.8 84.7 61.4 84.7 66.2 84.7 71.5 83.1 75.2 80L80 75.7 83.1 81C87.4 88.4 95.3 92.7 103.8 92.7 117 92.7 128.1 82.1 128.1 68.8 128.1 68.3 128.1 67.2 128.1 66.2L128.7 59.3H163.6C166.8 59.3 169.4 62 169.4 65.1V224.5C170.5 234.6 163.6 243.6 153.6 244.6 152 244.6 150.9 244.6 149.3 244.6H57.2V244.6Z"
    />
    <path
      d="M163.1 59.3H135C138.2 59.3 140.3 62 140.3 65.1V224.5C141.4 234.6 134.5 243.6 124.4 244.6 122.8 244.6 121.8 244.6 120.2 244.6H148.3C158.3 245.7 167.3 238.8 168.4 228.8 168.4 227.2 168.4 226.1 168.4 224.5V65.1C168.4 62 166.3 59.3 163.1 59.3Z"
    />
    <path
      d="M168.9 216.6V186.9H188C200.2 186.9 201.2 174.7 201.2 169.4V134.5C201.2 129.2 200.2 117 188 117H168.9V87.9H203.9C219.2 87.9 228.2 99.5 228.2 119.7V184.3C228.2 204.4 219.2 216 203.9 216L168.9 216.6Z"
    />
    <path
      d="M203.9 87.9H186.9C202.3 87.9 211.3 99.5 211.3 119.7V184.3C211.3 204.4 202.3 216 186.9 216H203.9C219.2 216 228.2 204.4 228.2 184.3V119.7C228.2 99.5 219.2 87.9 203.9 87.9Z"
    />
    <path
      d="M203.9 82.6H174.2V65.1C174.2 63 173.7 60.9 172.6 59.3 175.8 55.1 177.4 50.3 177.4 45 177.4 30.7 165.7 19.6 151.4 19.6 148.3 19.6 144.6 20.1 141.9 21.7 132.9 10.6 117.6 6.9 104.8 13.8 96.4 0 77.8-4.2 64.1 4.8 56.7 9.5 51.9 16.9 50.8 25.4 37.6 20.7 22.8 27 18 40.2 16.9 42.9 16.4 46.1 16.4 48.7V100.6C16.4 109.6 23.3 117.6 32.3 118.6V224.5C31.2 237.2 40.8 248.9 53.5 249.9 55.1 249.9 56.1 249.9 57.7 249.9H149.3C162 251 173.7 241.5 174.7 228.8 174.7 227.2 174.7 226.1 174.7 224.5V221.9H203.9C222.4 221.9 233.5 208.1 233.5 184.8V119.7C233.5 96.4 222.4 82.6 203.9 82.6ZM163.6 224.5C164.7 231.9 159.9 238.3 152.5 239.3 151.4 239.3 149.9 239.3 148.8 239.3H57.2C49.8 240.4 43.4 235.6 42.4 228.2 42.4 227.2 42.4 225.6 42.4 224.5V117C48.7 113.8 53 107.5 53 100.6V88.4C62 91.6 71.5 89.5 78.4 83.7 86.8 97.4 104.8 102.2 119.1 93.7 127.6 88.4 132.9 78.9 133.4 68.8 133.4 68.3 133.4 67.2 133.4 66.7 133.4 66.2 133.4 65.7 133.4 65.1H163.6C163.6 65.1 164.2 65.1 164.2 65.7V224.5H163.6ZM163.1 54H127.6C124.4 54 122.3 56.1 122.3 59.3 122.3 59.8 122.3 59.8 122.3 60.4V60.9C122.3 62.5 122.3 64.1 122.3 65.7 122.3 66.7 122.3 67.8 122.3 68.8 122.3 79.4 113.3 87.4 102.7 87.4 93.7 87.4 86.3 81 84.7 72 84.2 69.9 82.6 67.8 80 67.8 77.8 67.8 75.7 68.8 74.7 71 71 78.4 62 81.5 54.5 77.8 53 77.3 51.9 76.3 50.8 75.2 48.7 73.1 45.5 73.1 43.4 75.2 42.4 76.3 41.8 77.3 41.8 78.9V100.6C41.8 104.8 38.1 108.6 33.9 108.6 29.7 108.6 25.9 104.8 25.9 100.6V48.7C25.9 40.2 33.4 33.9 41.3 34.4 45.5 34.4 49.2 36.5 51.9 39.2 54 41.3 57.2 41.8 59.3 39.7 60.9 38.1 61.4 36 60.9 33.9 60.4 32.3 59.8 30.2 59.8 28.6 59.8 18 68.3 9.5 78.4 9.5 86.8 9.5 94.3 14.8 96.9 22.8 98 25.4 100.6 27 103.8 25.9 104.3 25.9 104.8 25.4 105.4 24.9 113.3 18 125.5 19.1 131.9 27.5 132.9 28.6 133.4 30.2 134.5 31.2 135.6 33.9 138.7 34.9 141.4 33.4L141.9 32.8C144.6 31.2 147.7 30.2 150.9 30.2 158.9 30.2 165.7 36.5 165.7 44.5 166.8 48.2 165.2 51.4 163.1 54ZM174.2 122.8H188C193.3 122.8 195.9 127.1 195.9 135V170C195.9 177.9 193.3 182.2 188 182.2H174.2V122.8ZM222.9 184.8C222.9 194.9 220.3 211.3 203.9 211.3H174.2V192.2H188C199.6 192.2 206.5 183.7 206.5 169.4V134.5C206.5 120.7 199.6 111.7 188 111.7H174.2V93.2H203.9C220.3 93.2 222.9 109.6 222.9 119.7V184.8Z"
      class="a"
    />
    <path
      d="M65.1 108.6C62 108.6 59.8 110.7 59.8 113.8V200.7C59.8 203.9 62 206 65.1 206 68.3 206 70.4 203.9 70.4 200.7V113.8C70.4 110.7 67.8 108.6 65.1 108.6Z"
      class="a"
    />
    <path
      d="M90 108.6C86.8 108.6 84.7 110.7 84.7 113.8V200.7C84.7 203.9 86.8 206 90 206 93.2 206 95.3 203.9 95.3 200.7V113.8C95.3 110.7 93.2 108.6 90 108.6Z"
      class="a"
    />
    <path
      d="M115.4 108.6C112.3 108.6 110.1 110.7 110.1 113.8V200.7C110.1 203.9 112.3 206 115.4 206 118.6 206 120.7 203.9 120.7 200.7V113.8C120.7 110.7 118.1 108.6 115.4 108.6Z"
      class="a"
    />
    <path
      d="M140.3 108.6C137.1 108.6 135 110.7 135 113.8V200.7C135 203.9 137.1 206 140.3 206 143.5 206 145.6 203.9 145.6 200.7V113.8C145.6 110.7 143.5 108.6 140.3 108.6Z"
      class="a"
    />
  </g>
  <defs>
    <clipPath><rect width="250" height="250" /></clipPath>
  </defs>
</svg>