<svg
  xmlns="http://www.w3.org/2000/svg"
  width="250"
  height="250"
  viewBox="0 0 250 250"
  fill="none"
  class="beer"
>
  <style>
    .a {
      fill: white;
    }
  </style>
  <g clip-path="url(#clip0)">
    <path
      d="M57.2 244.9C47.1 245.9 38.1 239.6 37 230.4 37 229 37 228 37 226.6V125.8L40.2 124.3C45 122.4 46 122.9 50 124.3 54 125.8 67.9 127.7 75.3 127.7 82.6 127.7 93.7 127.7 93.7 127.7 95.8 128.2 100.5 125.8 103.2 125.8 108 125.8 113.5 129.2 117.2 126.4L124.8 127.7 134.3 125.8C146.4 121.8 140.4 136.4 148.9 136.4 162.2 136.4 160.4 129.1 152.4 130 146.9 132.3 162.4 135.1 162.4 134.1L166.4 123.2V93.1C169.6 93.1 169.9 78.5 169.9 81.4V226.6C171 235.7 164 243.9 153.9 244.9 152.4 244.9 151.3 244.9 149.7 244.9H57.2Z"
    />
    <path
      d="M162.8 126H135.5C138.6 126 140.6 127.7 140.6 129.7V232C141.7 238.5 134.9 244.3 125.1 244.9 123.6 244.9 122.5 244.9 121 244.9H148.4C158.2 245.6 167 241.2 168 234.7 168 233.7 168 233 168 232V129.7C168 127.7 165.9 126 162.8 126Z"
    />
    <path
      d="M168.9 216.6V186.9H188C200.2 186.9 201.2 174.7 201.2 169.4V134.5C201.2 129.2 200.2 117 188 117H168.9V113.5C168.9 113.5 200.2 124 203.9 124.5 207.5 125 222.5 127 228.2 119.7V184.3C228.2 204.4 219.2 216 203.9 216L168.9 216.6Z"
    />
    <path
      d="M222.5 125H225.5C240.9 125 212 122 211.3 125 210.6 128 211.3 184.3 211.3 184.3 211.3 204.4 202.3 216 186.9 216H203.9C219.2 216 228.2 204.4 228.2 184.3V125C228.2 104.9 237.9 125 222.5 125Z"
    />
    <path
      d="M203.9 82.6H174.2V65.1C174.2 59.5 174.2 59.5 170.5 59.3 165.9 59.3 168 59.3 163.6 59.3 154 59.3 159.3 59.3 145 59.3 141.8 59.3 133.4 59.3 130 59.5 124.5 59.3 122 59.3 109 59.3 101.5 59.3 99 59.5 89.5 59.3 84 59.5 80.5 59.5 77.5 59.5 72 59.3 69.5 59.3 60 59.3 56 59.3 37.7 59.5 35 59.5 32.3 59.5 32.3 59.5 32.3 65.1 32.3 70.8 32.3 105 32.3 118.6V224.5C31.2 237.2 40.8 248.9 53.5 249.9 55.1 249.9 56.1 249.9 57.7 249.9H149.3C162 251 173.7 241.5 174.7 228.8 174.7 227.2 174.7 226.1 174.7 224.5V221.9H203.9C222.4 221.9 233.5 208.1 233.5 184.8V119.7C233.5 96.4 222.4 82.6 203.9 82.6ZM163.6 224.5C164.7 231.9 159.9 238.3 152.5 239.3 151.4 239.3 149.9 239.3 148.8 239.3H57.2C49.8 240.4 43.4 235.6 42.4 228.2 42.4 227.2 42.4 225.6 42.4 224.5V117C42.4 106 42.4 100.1 42.4 93.2V65.1C49.5 65.1 68.5 65.1 77.5 65.1 84 65.1 96 65.1 113.5 65.1 121.5 65.1 120.5 65.1 125 65.1 127.5 65.1 129 65.1 130 65.1 130.5 65.1 132.5 65.1 133.4 65.1H163.6C163.6 65.1 164.2 65.1 164.2 65.7V224.5H163.6ZM174.2 122.8H188C193.3 122.8 195.9 127.1 195.9 135V170C195.9 177.9 193.3 182.2 188 182.2H174.2V122.8ZM222.9 184.8C222.9 194.9 220.3 211.3 203.9 211.3H174.2V192.2H188C199.6 192.2 206.5 183.7 206.5 169.4V134.5C206.5 120.7 199.6 111.7 188 111.7H174.2V93.2H203.9C220.3 93.2 222.9 109.6 222.9 119.7V184.8Z"
      class="a"
    />
    <path
      d="M65.1 108.6C62 108.6 59.8 110.7 59.8 113.8V200.7C59.8 203.9 62 206 65.1 206 68.3 206 70.4 203.9 70.4 200.7V113.8C70.4 110.7 67.8 108.6 65.1 108.6Z"
      class="a"
    />
    <path
      d="M90 108.6C86.8 108.6 84.7 110.7 84.7 113.8V200.7C84.7 203.9 86.8 206 90 206 93.2 206 95.3 203.9 95.3 200.7V113.8C95.3 110.7 93.2 108.6 90 108.6Z"
      class="a"
    />
    <path
      d="M115.4 108.6C112.3 108.6 110.1 110.7 110.1 113.8V200.7C110.1 203.9 112.3 206 115.4 206 118.6 206 120.7 203.9 120.7 200.7V113.8C120.7 110.7 118.1 108.6 115.4 108.6Z"
      class="a"
    />
    <path
      d="M140.3 108.6C137.1 108.6 135 110.7 135 113.8V200.7C135 203.9 137.1 206 140.3 206 143.5 206 145.6 203.9 145.6 200.7V113.8C145.6 110.7 143.5 108.6 140.3 108.6Z"
      class="a"
    />
  </g>
  <defs>
    <clipPath><rect width="250" height="250" /></clipPath>
  </defs>
</svg>