<svg
  xmlns="http://www.w3.org/2000/svg"
  width="250"
  height="250"
  viewBox="0 0 250 250"
  fill="none"
  class="beer"
>
  <style>
    .a {
      fill: white;
    }
  </style>
  <g clip-path="url(#clip0)">
    <path
      d="M57.2 244.6C47.1 245.7 38.1 238.8 37.1 228.8 37.1 227.2 37.1 226.1 37.1 224.5V113.8L40.2 181C45 178.9 46 180.4 50 182 54 183.6 67.9 182.8 75.2 182.8 82.5 182.8 93.5 182.8 93.5 182.8 95.6 183.4 100.4 185 103 185 107.8 185 111.3 188.2 115 185L119.5 187H137.5C149.5 182.7 139 198 147.5 198 160.7 198 155.5 202 160 193 168.5 202 170 126.5 166 123V111 78C169.2 78 169.4 62 169.4 65.1V224.5C170.5 234.6 163.6 243.6 153.6 244.6 152 244.6 150.9 244.6 149.3 244.6H57.2Z"
    />
    <path
      d="M162.8 187H135.5C138.6 187 140.6 187.8 140.6 188.8V238.7C141.7 241.8 134.9 244.6 125.1 245 123.6 245 122.5 245 121 245H148.4C158.2 245.3 167 243.1 168 240 168 239.5 168 239.2 168 238.7V188.8C168 187.8 165.9 187 162.8 187Z"
    />
    <path
      d="M168.9 216.6V186.9H188C200.2 186.9 199.5 185 207.5 184.3H229.5C229.5 179 229.5 141 228.2 127L228.1 115 224.4 100.5 203.9 87.9C219.2 87.9 228.2 99.5 228.2 119.7V184.3C228.2 204.4 219.2 216 203.9 216L168.9 216.6Z"
    />
    <path
      d="M203.9 87.9L214 91.5C229.4 91.5 225.5 164.2 225.5 184.3 225.5 184.3 211.5 182 211.3 184.3 211.1 186.5 202.3 216 186.9 216H203.9C219.2 216 228.2 204.4 228.2 184.3V119.7C228.2 99.5 219.2 87.9 203.9 87.9Z"
    />
    <path
      d="M203.9 82.6H174.2V65.1C174.2 59.5 174.2 59.5 170.5 59.3 165.9 59.3 168 59.3 163.6 59.3 154 59.3 159.3 59.3 145 59.3 141.8 59.3 133.4 59.3 130 59.5 124.5 59.3 122 59.3 109 59.3 101.5 59.3 99 59.5 89.5 59.3 84 59.5 80.5 59.5 77.5 59.5 72 59.3 69.5 59.3 60 59.3 56 59.3 37.7 59.5 35 59.5 32.3 59.5 32.3 59.5 32.3 65.1 32.3 70.8 32.3 105 32.3 118.6V224.5C31.2 237.2 40.8 248.9 53.5 249.9 55.1 249.9 56.1 249.9 57.7 249.9H149.3C162 251 173.7 241.5 174.7 228.8 174.7 227.2 174.7 226.1 174.7 224.5V221.9H203.9C222.4 221.9 233.5 208.1 233.5 184.8V119.7C233.5 96.4 222.4 82.6 203.9 82.6ZM163.6 224.5C164.7 231.9 159.9 238.3 152.5 239.3 151.4 239.3 149.9 239.3 148.8 239.3H57.2C49.8 240.4 43.4 235.6 42.4 228.2 42.4 227.2 42.4 225.6 42.4 224.5V117C42.4 106 42.4 100.1 42.4 93.2V65.1C49.5 65.1 68.5 65.1 77.5 65.1 84 65.1 96 65.1 113.5 65.1 121.5 65.1 120.5 65.1 125 65.1 127.5 65.1 129 65.1 130 65.1 130.5 65.1 132.5 65.1 133.4 65.1H163.6C163.6 65.1 164.2 65.1 164.2 65.7V224.5H163.6ZM174.2 122.8H188C193.3 122.8 195.9 127.1 195.9 135V170C195.9 177.9 193.3 182.2 188 182.2H174.2V122.8ZM222.9 184.8C222.9 194.9 220.3 211.3 203.9 211.3H174.2V192.2H188C199.6 192.2 206.5 183.7 206.5 169.4V134.5C206.5 120.7 199.6 111.7 188 111.7H174.2V93.2H203.9C220.3 93.2 222.9 109.6 222.9 119.7V184.8Z"
      class="a"
    />
    <path
      d="M65.1 108.6C62 108.6 59.8 110.7 59.8 113.8V200.7C59.8 203.9 62 206 65.1 206 68.3 206 70.4 203.9 70.4 200.7V113.8C70.4 110.7 67.8 108.6 65.1 108.6Z"
      class="a"
    />
    <path
      d="M90 108.6C86.8 108.6 84.7 110.7 84.7 113.8V200.7C84.7 203.9 86.8 206 90 206 93.2 206 95.3 203.9 95.3 200.7V113.8C95.3 110.7 93.2 108.6 90 108.6Z"
      class="a"
    />
    <path
      d="M115.4 108.6C112.3 108.6 110.1 110.7 110.1 113.8V200.7C110.1 203.9 112.3 206 115.4 206 118.6 206 120.7 203.9 120.7 200.7V113.8C120.7 110.7 118.1 108.6 115.4 108.6Z"
      class="a"
    />
    <path
      d="M140.3 108.6C137.1 108.6 135 110.7 135 113.8V200.7C135 203.9 137.1 206 140.3 206 143.5 206 145.6 203.9 145.6 200.7V113.8C145.6 110.7 143.5 108.6 140.3 108.6Z"
      class="a"
    />
  </g>
  <defs>
    <clipPath><rect width="250" height="250" /></clipPath>
  </defs>
</svg>