              <svg
                xmlns="http://www.w3.org/2000/svg"
                width="231"
                height="240"
                viewBox="0 0 231 240"
                fill="none"
                class="hops"
              >
                <path
                  d="M174 80.7C175.7 80.3 177.5 80 179.2 79.7L179.2 79.7C184.1 88.7 187.3 98.9 187.5 109.2 187.6 113.4 187.3 117.6 186.2 121.6 182.9 122.5 179.7 123.4 176.5 124.5 177.2 123.1 177.9 121.7 178.4 120.3 179.5 117.6 177.7 114.9 175.2 114.7 175.1 114.7 175 114.7 174.7 114.7 173.3 114.7 172 115.6 171.4 116.8 171.3 117 171.4 116.8 171.1 117.5 169.3 121.8 166.8 125.9 163.4 129.2 163.3 129.3 163.3 129.3 163.2 129.4 163 129.5 162.9 129.7 162.7 129.9 161 130.7 159.4 131.6 157.7 132.4 159.6 129.7 161.3 126.9 162.9 124 165.4 119.5 167.6 114.9 169.4 110.1 169.4 110.1 169.4 110 169.4 109.9 170.3 107.6 168.7 105 166.4 104.6 166.2 104.6 166.2 104.6 166 104.6 165.8 104.6 165.7 104.6 165.3 104.6 163.9 104.8 162.7 105.7 162.1 107L162 107.3C161.8 107.9 161.6 108.6 161.3 109.2 157.9 117.7 153.2 125.8 147.6 133.1 147.2 130.8 146.7 128.6 146.2 126.4 148.6 123.8 150.7 120.8 152.4 117.6 153.7 115.2 154.7 112.7 155.3 110.1 155.8 107.6 154 105.4 151.7 105.2 151.6 105.2 151.5 105.2 151.2 105.2 150 105.3 148.8 106 148.1 107 147.8 107.5 147.6 108.3 147.6 108.3 146.9 111.7 145.2 114.9 143.1 117.8 141.6 114.5 139.7 111.5 137.6 108.7 137.8 108.5 137.9 108.3 138.1 108.1L138.2 107.8C140.4 102.3 143.5 97.2 147.8 93.1 149.5 91.4 151.3 90 153.2 88.8 153.4 88.7 153.6 88.6 153.8 88.4 153.8 88.4 153.8 88.4 153.8 88.4 159.9 84.5 167 82.3 174 80.7ZM44.4 76.4L44.6 76.4C53.2 78.4 61.8 81.1 69.1 86.1 76.2 91 81.1 98 83.9 106 83.9 106.1 84 106.2 84 106.3 84.2 106.7 84.4 107 84.6 107.3 82.3 110.1 80.3 113.1 78.7 116.2 76.8 113.3 75.3 110.2 74.7 106.8 74.4 105.3 73.5 103.9 72.1 103.4 71.7 103.3 71.6 103.2 71 103.2 69.6 103.1 68.1 103.9 67.4 105.1 66.7 106.2 66.9 107.7 66.9 107.7 67.6 113 70.2 117.9 73.3 122.3 73.9 123.1 74.6 124 75.2 124.8 74.6 126.9 74 129 73.5 131.2 67.8 123.2 63.2 114.2 60.3 104.9 59.8 103.4 58.5 102.1 56.9 101.9 56.7 101.9 56.6 101.9 56.2 101.9 54.7 102 53.4 103 52.8 104.3 52.3 105.6 52.7 107 52.7 107 52.9 107.6 53.1 108.1 53.3 108.7 55.8 116.1 59.2 123.3 63.3 130 61.9 129.2 60.4 128.4 59 127.6 58.8 127.5 58.6 127.5 58.5 127.4 58.3 127 58.1 126.8 58.1 126.8 54.7 123.4 52.3 119 50.7 114.5 50.6 114.3 50.6 114.2 50.4 113.8 50 112.8 49.1 112.1 48.1 111.7 47.8 111.6 47.6 111.6 47.1 111.5 45.4 111.5 43.8 112.6 43.2 114.1 42.7 115.4 43.2 116.8 43.2 116.8 43.7 118.3 44.3 119.7 45 121.1 41.8 119.9 38.6 118.8 35.4 117.8 35.1 116.6 35 115.3 34.8 114.1 33.4 100.8 37.5 87.6 44.4 76.4ZM44.4 164.6C44.4 165.3 44.8 166.3 44.8 166.3 45.8 168.3 46.9 170.3 48.1 172.3 58.7 190.3 74.1 205.8 93 215.3 89.9 214.9 86.8 214.3 83.8 213.6 83.6 213.4 83.4 213.1 83.2 212.9 82.8 212.7 82.4 212.4 82.4 212.4 78.2 210.5 74.3 208.1 70.6 205.4 61.3 198.6 53.1 190.1 46.3 180.6 45.5 179.3 44.4 178.4 43 178.2 42.9 178.2 42.7 178.2 42.3 178.2 39.6 178.5 38 181.7 39.1 183.9 39.2 184.1 39.2 184.2 39.4 184.4 39.4 184.4 39.8 185 40.1 185.4 44.7 191.8 49.9 197.9 55.7 203.4 51.1 200.9 46.7 198.1 42.6 194.8 34.4 188.2 27.8 179.7 23.7 170 17.4 155.1 17.2 138.3 19.9 122.3 20 122.2 20 122.1 20 122.1 20.6 122.2 21.2 122.3 21.8 122.4 42.4 126.9 63 136.1 78.3 151.1 84.7 157.4 90 164.7 93.8 172.8 97.5 180.7 99.6 189.1 100.4 197.8 89.4 191.4 80.3 181.7 73.1 171 71.5 168.6 70.3 165.8 67.8 165.6 67.6 165.6 67.5 165.5 67.1 165.6 65.4 165.7 63.9 167.1 63.6 168.7 63.3 170.1 64.1 171.5 64.1 171.5 64.5 172.2 64.9 172.9 65.3 173.6 74.2 187.3 86.2 199.9 100.9 206.9 100.9 208.1 100.9 209.2 100.9 210.4 86 203.8 72.9 192.9 62.8 180 58.8 174.8 55.1 169.3 52.2 163.4 51.5 162 50.3 160.9 48.8 160.7 48.6 160.6 48.5 160.6 47.9 160.7 46 160.9 44.4 162.6 44.4 164.6ZM129 136.6C128.8 135 127.9 133.4 126.5 132.8 126.2 132.7 126 132.6 125.4 132.6 125.2 132.6 125.1 132.5 124.7 132.6 123 132.7 121.6 133.9 121.2 135.5 121.1 135.9 121 136.1 121.1 136.8 121.1 136.8 121.1 137.3 121.1 137.7 121.8 147.9 120.9 158.3 118.5 168.3 118.5 168.4 118.4 168.5 118.4 168.7 118.3 169.1 118.3 169.5 118.3 169.9 114.7 176.8 112.1 184.2 110.6 191.9 110.2 172.2 111.5 152.5 113.5 132.8 113.6 131.9 113.8 131 113.7 130.1 113.6 129.2 113.1 128.3 112.4 127.7 111.8 127.1 111.5 127.1 110.7 126.8 110.1 126.7 109.5 126.7 108.8 126.8 107.9 127.1 107.1 127.6 106.6 128.4 106.4 128.7 106.3 129 106.1 129.3L105.9 130.2 105.9 130.6C104.3 144.9 103.3 159.5 102.9 174 102.3 172.5 101.6 171 100.9 169.5 101 168.9 100.9 168.3 100.9 168.3 98.8 157.9 98.4 147 99.7 136.5 99.9 134.6 99.1 132.8 97.5 132.1 97.1 131.9 96.9 131.8 96.1 131.8 96 131.8 95.9 131.7 95.4 131.8 94.1 131.9 92.8 132.8 92.2 134.1 92 134.5 91.9 135.2 91.9 135.2 91.8 135.8 91.8 136.4 91.7 137 91.2 142.6 91 148.2 91.3 153.9 87.8 149.4 83.9 145.4 79.6 141.7 79.7 141.4 79.7 141.3 79.7 141.3 80.9 132.1 83.2 122.6 88.6 115 94.1 107.3 101.9 101.9 110.4 98.1 110.7 97.9 111 97.8 111.3 97.7 117 100.5 122.4 104 127 108.5 136.2 117.5 139.6 129.4 140.7 141.4 140.8 142.1 140.8 142.7 140.9 143.2 140.2 143.8 139.4 144.4 138.7 145 135.1 148 131.8 151.2 128.7 154.7 129.3 148.7 129.4 142.6 129 136.6ZM116.4 210.8C116.4 209.7 116.4 208.6 116.5 207.4 121.1 205.4 125.5 202.9 129.6 200 139.4 193.1 148 184.3 154.8 174 154.9 174 154.9 173.9 155 173.8 156.5 171.5 155 168.3 152.5 167.7 152.3 167.7 152.3 167.7 152.1 167.7 150 167.6 148.4 169.5 148.4 169.5 147.9 170.2 147.5 170.8 147 171.5 139.3 182.2 129.4 192.1 117.4 198.3 118.7 189.6 121.2 181.2 125.3 173.5 133.1 158.9 146 147.5 160.6 139.8 173.2 133.1 187.1 128.7 201.4 126.5 201.5 126.5 201.4 126.7 201.4 126.7 202.7 136.8 202.8 147.1 200.9 157.1 199.1 166.6 195.4 175.8 189.8 183.6 182.5 193.6 172.5 201 161.5 206.2 167.9 200.8 173.8 194.7 178.9 188 180.8 185.5 179.3 182.1 176.7 181.6 176.5 181.5 176.4 181.5 176.2 181.5 174.8 181.4 173.6 182 172.7 183.1 172.7 183.1 172.3 183.6 172 184 162.3 196.3 149.7 207.6 135.1 213.6 135.1 213.7 135 213.7 134.9 213.7 134.2 214 133.7 214.4 133.3 214.9 130.2 215.4 127 215.9 123.9 216.2 139.4 209.2 153.1 198.1 164 184.8 167.9 180 171.6 175 174.5 169.5 175.7 167.2 174.3 164.3 171.9 163.8 171.7 163.7 171.6 163.7 171.3 163.7 169.1 163.6 167.5 165.8 167.5 165.8 166.4 167.9 165.1 170 163.7 172 152.5 188.6 136.4 202.7 117.7 210.3 117.3 210.5 116.9 210.6 116.4 210.8ZM40.9 171.4L38.7 167.7C38 166.5 36.8 165.8 35.5 165.7 35.4 165.7 35.4 165.7 35.2 165.7 32.4 165.8 30.7 168.9 31.7 171.2 31.8 171.3 31.8 171.4 31.9 171.6L34.1 175.3C34.9 176.8 36.4 177.5 38 177.3 40.5 176.9 42 174 41.1 171.8 41 171.7 41 171.6 40.9 171.4ZM178.6 179.6C180.2 181.3 183 181.1 184.5 179.5 184.6 179.3 184.6 179.3 184.8 179L187.1 175.4C187.2 175.3 187.2 175.3 187.2 175.3 188.6 172.9 186.9 169.8 184.4 169.4 184.3 169.4 184.2 169.3 184 169.3 183.9 169.3 183.9 169.3 183.8 169.3 182.5 169.3 181.2 170 180.5 171.1L178.2 174.8C177.2 176.3 177.4 178.3 178.6 179.6ZM38.5 157.3C39.7 159.1 42.4 159.6 44.1 158.3 45.6 157.2 46.1 155.1 45.3 153.4 45.3 153.3 45.2 153.2 45.1 153L42.7 149.3C42 148.2 40.8 147.5 39.5 147.5 39.4 147.5 39.4 147.5 39.4 147.5 36.2 147.5 34.6 151.2 36.1 153.6L38.5 157.3ZM181.2 160.8L183.8 157.2C185.6 154.7 183.6 151.1 180.8 151 180.7 151 180.7 151 180.7 150.9 179.4 150.9 178.2 151.6 177.4 152.6L174.8 156.2C173.9 157.5 173.9 159.2 174.7 160.5 176.1 162.8 179.7 162.9 181.2 160.8ZM48.5 96.7C48.9 97.9 50 98.9 51.2 99.2 53.4 99.8 55.9 98.1 56.1 95.9 56.3 94.9 55.9 93.9 55.6 93 55.1 91.4 53.6 90.3 52 90.3 51.9 90.3 51.9 90.3 51.8 90.3 49.8 90.3 48.1 92 47.9 94 47.9 94.9 48.2 95.8 48.5 96.7ZM173.2 101.1C174 100.4 174.3 99.5 174.6 98.5 175.5 96 173.5 93.3 171.1 93.2 169.8 93.2 168.6 93.8 167.8 94.8 166.9 95.9 166.2 97.9 166.7 99.5 167.6 102.3 171.4 103 173.2 101.1ZM63 98.2C63.4 99.2 64.2 100.1 65.1 100.5 67.1 101.4 69.7 100.3 70.5 98.3 70.9 97.1 70.5 95.8 70.1 94.5 69.6 93 68.1 91.9 66.5 91.8 66.5 91.8 66.4 91.8 66.3 91.8 64.3 91.8 62.6 93.6 62.5 95.5 62.4 96.4 62.8 97.3 63 98.2ZM152.1 100.3C153 103.1 156.8 103.8 158.7 102 159.4 101.3 159.7 100.3 160 99.3 160.9 96.8 158.9 94.2 156.5 94.1 155.2 94 153.9 94.6 153.2 95.6 152.3 96.8 151.6 98.8 152.1 100.3ZM41.9 109.9C43.9 110.8 46.5 109.7 47.2 107.7 47.7 106.5 47.3 105.1 46.9 103.9 46.4 102.3 44.9 101.2 43.3 101.2 41.6 101.1 40 102.2 39.5 103.8 39 104.9 39.4 106.3 39.8 107.5 40.2 108.6 40.9 109.4 41.9 109.9ZM181.4 112.4C182.1 111.7 182.4 110.8 182.8 109.8 183.7 107.3 181.7 104.6 179.2 104.5 178 104.5 176.7 105.1 176 106.1 175.1 107.2 174.4 109.2 174.9 110.8 175.8 113.6 179.5 114.3 181.4 112.4ZM114.7 113.9C115.1 111.5 113.2 109.4 111 109.3 110.9 109.3 110.9 109.3 110.8 109.3 108.9 109.3 107.3 110.7 106.9 112.6L106.2 116.7C106.2 116.8 106.2 116.8 106.2 116.9 106 118.6 107 120.3 108.5 121 110.6 121.9 113.2 120.7 113.9 118.5 113.9 118.4 113.9 118.3 114 118.1L114.7 113.9ZM101.7 119.8C102.1 117.5 100.2 115.3 98 115.2 97.9 115.2 97.9 115.2 97.8 115.2 95.9 115.3 94.3 116.7 93.9 118.5L93.2 122.7C93.2 122.8 93.2 122.8 93.2 122.9 93 124.5 94 126.3 95.5 127 97.6 127.9 100.2 126.6 100.9 124.5 100.9 124.4 100.9 124.3 101 124L101.7 119.8ZM128.2 123.6L127.7 119.4C127.5 117.6 125.9 116.1 124 116 124 116 124 116 123.9 116 121.5 116 119.7 118.2 119.9 120.4L120.4 124.6C120.4 124.7 120.4 124.7 120.4 124.8 120.8 126.8 122.9 128.3 124.9 128 126.8 127.7 128.3 126 128.3 124.1 128.3 124 128.3 123.9 128.2 123.6ZM55.4 156.4L57.6 160.2C58.4 161.6 60 162.3 61.5 162.1 64 161.8 65.6 158.8 64.6 156.6 64.6 156.5 64.5 156.4 64.4 156.2L62.3 152.5C61.6 151.3 60.3 150.6 59 150.5 58.9 150.5 58.9 150.5 58.7 150.5 56 150.6 54.2 153.7 55.2 156 55.3 156.2 55.3 156.2 55.4 156.4ZM161.7 163.2C161.8 163.1 161.8 163 162 162.8L164.3 159.1C164.4 159.1 164.4 159.1 164.4 159 165.8 156.7 164.1 153.5 161.7 153.1 161.5 153.1 161.4 153.1 161.2 153.1 161.1 153.1 161.1 153.1 161.1 153.1 159.7 153.1 158.5 153.8 157.7 154.9L155.4 158.5C154.2 160.4 154.9 163 156.7 164 158.3 165 160.5 164.6 161.7 163.2Z"
                />
                <line x1="113.5" y1="17" x2="113.5" y2="18" />
              </svg>