              <svg
                xmlns="http://www.w3.org/2000/svg"
                width="230"
                height="241"
                viewBox="0 0 230 241"
                fill="none"
                class="hops"
              >
                <path
                  d="M172.7 81.2C174.4 80.8 176.1 80.5 177.9 80.1L177.9 80.2C182.9 89.1 186.1 99.3 186.4 109.6 186.6 113.8 186.3 118 185.2 122 182 122.9 178.7 123.9 175.5 125 176.2 123.6 176.9 122.2 177.5 120.8 178.5 118.1 176.7 115.4 174.1 115.2 174 115.2 174 115.2 173.7 115.2 172.3 115.3 171 116.1 170.4 117.3 170.3 117.5 170.3 117.3 170.1 118 168.3 122.4 165.8 126.5 162.5 129.8 162.4 129.9 162.4 129.9 162.3 130 162.1 130.1 162 130.3 161.8 130.5 160.1 131.3 158.5 132.2 156.9 133.1 158.7 130.3 160.4 127.5 162 124.6 164.4 120.1 166.6 115.5 168.3 110.7 168.3 110.6 168.3 110.6 168.4 110.5 169.2 108.1 167.6 105.6 165.3 105.2 165.1 105.2 165.1 105.2 164.9 105.2 164.7 105.2 164.6 105.1 164.2 105.2 162.8 105.4 161.6 106.3 161 107.6L160.9 107.9C160.7 108.5 160.5 109.2 160.2 109.8 156.9 118.4 152.3 126.5 146.7 133.8 146.3 131.6 145.8 129.4 145.2 127.2 147.6 124.5 149.8 121.5 151.4 118.3 152.6 115.9 153.7 113.3 154.2 110.7 154.7 108.3 152.8 106.1 150.6 105.9 150.5 105.9 150.4 105.9 150.1 105.9 148.9 106 147.7 106.7 147 107.7 146.7 108.3 146.5 109 146.5 109 145.8 112.5 144.1 115.7 142.1 118.6 140.5 115.3 138.6 112.3 136.5 109.6 136.7 109.4 136.8 109.1 137 108.9L137.1 108.6C139.2 103.1 142.3 97.9 146.5 93.8 148.2 92.1 150.1 90.7 152 89.4 152.1 89.3 152.3 89.2 152.5 89.1 152.5 89.1 152.5 89.1 152.6 89 158.6 85.1 165.7 82.9 172.7 81.2ZM151 43.8L151.1 43.9C156.6 50.1 160.9 57.5 163.3 65.5 164.2 68.6 164.8 71.8 165 75.1 162.4 75.9 159.8 76.8 157.2 77.8 157.7 76.2 158.1 74.6 158.4 73 158.9 70.5 157.1 68.2 154.8 68 154.7 68 154.6 68 154.4 68 153.1 68.1 151.8 68.9 151.2 70 150.9 70.5 150.7 71.2 150.7 71.2 150 75.5 148.5 79.5 146.8 83.4 146.2 83.9 145.5 84.4 144.8 84.9 143.5 85.9 142.3 87 141.2 88.1 141.3 87.6 141.5 87.1 141.7 86.6 143.9 79.9 146 73.1 147.5 66.3 147.9 64.5 146.9 62.6 145.3 61.9 144.9 61.7 144.7 61.6 143.9 61.5 143.8 61.5 143.6 61.5 143.2 61.5 141.6 61.7 140.4 62.9 139.9 64.4L139.8 64.8C139.6 65.6 139.4 66.5 139.2 67.3 136.3 78.8 132.4 90 128 100.9 127.5 100.5 127 100.1 126.5 99.7 128.6 93.1 130.5 86.4 132.2 79.7 132.3 79.3 132.4 79.2 132.5 78.5 132.8 76.4 131.3 74.3 129.2 74 129.1 74 129 74 128.9 74 128.8 74 128.7 73.9 128.3 74 127.1 74.1 125.9 74.8 125.2 75.9 124.9 76.4 124.8 77.1 124.8 77.1 123.2 83.1 121.5 89.1 119.7 95 118.1 94 116.5 93.1 114.8 92.3 114.8 92.2 114.8 92.2 114.7 92.2 114.7 90.1 114.5 88.1 114.3 86 115.6 77.6 118.5 69.4 123.6 62.7 130.4 53.6 140.4 47.6 151 43.8ZM88.8 37.2C93.5 27.4 102.3 21 111.8 16.8 116.9 19.3 121.7 22.4 125.7 26.4 130.1 30.8 133.9 36.4 135 42.6 128.9 46.2 123.4 50.5 118.9 55.9 117.3 57.8 115.8 59.8 114.5 62L115.2 37.9C115.2 36.3 114.3 34.8 112.9 34.2 112.6 34 112.4 33.9 111.6 33.8 111.4 33.8 111.3 33.8 110.8 33.8 109.4 34 108.1 35 107.6 36.3 107.4 36.7 107.4 36.8 107.3 37.6L106.7 61.3C101.9 53.1 95 46.7 87.1 41.8 87.5 40.2 88.1 38.7 88.8 37.2ZM71 42.5L71.2 42.5C81.8 46.8 91.7 53.2 98.1 62.5 102.5 68.8 105 76.1 106.1 83.7L106.1 83.9C106.1 84.1 106.1 84.2 106.1 84.4 106.2 84.7 106.2 85 106.3 85.3 106.4 85.5 106.4 85.6 106.4 85.8 106.1 87.7 105.9 89.7 105.8 91.6 105.8 91.7 105.8 91.8 105.8 92 105.8 92 105.7 92 105.7 92 104 92.8 102.4 93.7 100.8 94.6 99.2 88.8 97.7 83 96.4 77.2 96.3 76.8 96.3 76.6 96.1 76 95.7 74.9 94.8 73.9 93.7 73.5 93.3 73.4 93.2 73.4 92.6 73.3 92.5 73.3 92.4 73.3 92 73.3 90.3 73.5 88.7 74.9 88.5 76.7 88.4 77.3 88.6 78.2 88.6 78.2 90.1 85.1 91.8 92 93.7 98.8 93.7 98.9 93.8 99 93.8 99 93.3 99.4 92.7 99.8 92.2 100.2 87.9 88.5 84 76.2 81.6 64 81.6 63.9 81.6 63.8 81.6 63.7 81.3 62 79.8 60.6 78.1 60.4 77.9 60.4 77.8 60.4 77.4 60.4 76.1 60.5 74.9 61.3 74.2 62.5 73.6 63.6 73.8 65.1 73.8 65.1 74 66 74.2 66.9 74.4 67.8 75.8 74.3 77.5 80.6 79.4 86.9 77.7 85.2 75.9 83.7 74 82.2 72.5 78.4 71.2 74.5 70.5 70.4 70.3 68.8 69.4 67.4 68 66.8 67.6 66.7 67.4 66.6 66.8 66.6 65.4 66.5 64 67.2 63.3 68.4 62.6 69.5 62.7 71 62.7 71 62.9 72.8 63.3 74.5 63.7 76.3 61.7 75.4 59.7 74.6 57.6 73.8 57.1 73.7 56.6 73.5 56.1 73.3 56.1 72.6 56.2 71.8 56.3 71 58 60.2 63.5 50.3 71 42.5ZM43.1 78L43.3 78C51.8 79.9 60.5 82.5 67.9 87.5 75 92.3 79.9 99.3 82.8 107.3 82.8 107.4 82.9 107.5 82.9 107.6 83 108 83.2 108.3 83.5 108.6 81.2 111.4 79.3 114.4 77.7 117.6 75.8 114.7 74.2 111.5 73.6 108.2 73.3 106.6 72.4 105.3 70.9 104.8 70.6 104.7 70.4 104.6 69.9 104.6 68.4 104.5 67 105.3 66.2 106.5 65.6 107.7 65.8 109.1 65.8 109.1 66.6 114.4 69.2 119.3 72.3 123.6 73 124.5 73.6 125.4 74.3 126.1 73.6 128.2 73.1 130.4 72.6 132.6 66.8 124.7 62.2 115.7 59.2 106.4 58.7 104.9 57.4 103.6 55.7 103.4 55.6 103.4 55.5 103.4 55.1 103.4 53.6 103.5 52.2 104.5 51.7 105.9 51.2 107.1 51.6 108.5 51.6 108.5 51.8 109.1 52 109.7 52.2 110.2 54.7 117.6 58.2 124.8 62.4 131.5 60.9 130.7 59.5 129.9 58 129.1 57.9 129 57.7 128.9 57.5 128.9 57.3 128.5 57.1 128.3 57.1 128.3 53.8 124.9 51.3 120.6 49.7 116.1 49.6 115.9 49.6 115.8 49.4 115.4 48.9 114.4 48.1 113.6 47 113.3 46.7 113.2 46.6 113.2 46 113.1 44.3 113.1 42.7 114.2 42.1 115.7 41.7 117 42.1 118.4 42.1 118.4 42.7 119.9 43.3 121.3 44 122.8 40.8 121.5 37.6 120.4 34.4 119.4 34.1 118.3 33.9 117 33.8 115.8 32.3 102.5 36.3 89.3 43.1 78ZM43.8 166.2C43.8 166.9 44.2 167.9 44.2 167.9 45.2 169.9 46.3 171.9 47.5 173.9 58.3 191.8 73.9 207.1 92.8 216.5 89.7 216.1 86.6 215.5 83.6 214.9 83.4 214.6 83.2 214.4 83 214.2 82.6 213.9 82.1 213.7 82.1 213.7 78 211.8 74 209.4 70.3 206.8 61 200.1 52.7 191.6 45.8 182.2 45 180.9 43.9 180 42.5 179.8 42.4 179.8 42.2 179.8 41.8 179.9 39.1 180.1 37.5 183.4 38.7 185.6 38.8 185.8 38.8 185.8 38.9 186 38.9 186 39.3 186.6 39.6 187 44.3 193.4 49.5 199.5 55.4 204.9 50.8 202.5 46.3 199.7 42.2 196.4 34 189.9 27.3 181.4 23.2 171.8 16.7 156.9 16.4 140.1 19 124.1 19 124 19 123.9 19 123.9 19.6 124 20.3 124.1 20.8 124.2 41.4 128.5 62.1 137.5 77.6 152.4 84 158.7 89.4 166 93.3 174 97 181.8 99.2 190.3 100.1 198.9 89 192.7 79.8 183 72.5 172.3 70.9 170 69.7 167.2 67.2 167 67 167 66.9 166.9 66.5 167 64.8 167.2 63.3 168.5 63 170.1 62.8 171.5 63.5 172.9 63.5 172.9 63.9 173.6 64.4 174.3 64.8 175 73.8 188.7 85.9 201.1 100.6 208.1 100.6 209.2 100.7 210.4 100.6 211.5 85.7 205 72.5 194.3 62.3 181.4 58.2 176.2 54.5 170.8 51.5 165 50.8 163.5 49.7 162.4 48.2 162.2 48 162.2 47.8 162.2 47.3 162.2 45.4 162.5 43.8 164.2 43.8 166.2ZM128.1 137.5C128 135.9 127.1 134.3 125.6 133.7 125.3 133.6 125.2 133.6 124.5 133.5 124.3 133.5 124.2 133.4 123.8 133.5 122.2 133.6 120.7 134.9 120.3 136.4 120.2 136.8 120.2 137 120.2 137.8 120.2 137.8 120.3 138.3 120.3 138.6 121 148.9 120.3 159.2 117.9 169.3 117.9 169.4 117.8 169.5 117.8 169.6 117.7 170.1 117.7 170.5 117.7 170.9 114.2 177.9 111.7 185.3 110.2 192.9 109.6 173.3 110.7 153.5 112.7 133.8 112.7 132.9 112.9 132 112.8 131.2 112.7 130.2 112.2 129.3 111.5 128.7 110.8 128.2 110.6 128.1 109.8 127.9 109.2 127.8 108.5 127.7 107.9 127.9 107 128.1 106.2 128.7 105.6 129.5 105.5 129.8 105.4 130.1 105.2 130.4L105 131.3 105 131.7C103.5 146 102.6 160.6 102.3 175.1 101.7 173.6 101.1 172.1 100.4 170.7 100.4 170 100.3 169.5 100.3 169.5 98.1 159.1 97.6 148.2 98.8 137.6 99.1 135.8 98.2 134 96.6 133.3 96.2 133.1 96 133 95.2 132.9 95.1 132.9 95 132.9 94.5 132.9 93.2 133.1 91.9 134 91.4 135.3 91.2 135.7 91.1 136.4 91.1 136.4 91 137 90.9 137.6 90.9 138.2 90.4 143.8 90.3 149.5 90.6 155.1 87 150.7 83.1 146.6 78.8 143 78.9 142.7 78.9 142.6 78.9 142.6 80 133.4 82.2 123.8 87.6 116.2 93 108.5 100.8 103 109.2 99.1 109.5 99 109.8 98.8 110.1 98.7 115.8 101.5 121.3 105 125.9 109.4 135.1 118.3 138.7 130.2 139.9 142.2 140 142.9 140 143.5 140.1 144 139.4 144.6 138.6 145.2 137.9 145.8 134.3 148.8 131.1 152.1 128 155.6 128.6 149.6 128.6 143.5 128.1 137.5ZM116.2 211.8C116.2 210.7 116.2 209.5 116.2 208.4 120.9 206.4 125.2 203.8 129.3 200.9 139 193.9 147.6 185 154.3 174.7 154.3 174.6 154.4 174.6 154.4 174.5 155.9 172.1 154.4 168.9 151.9 168.4 151.7 168.4 151.7 168.4 151.5 168.4 149.4 168.3 147.8 170.2 147.8 170.2 147.4 170.9 146.9 171.6 146.4 172.2 138.9 183 129 193 117.1 199.3 118.3 190.6 120.7 182.1 124.8 174.4 132.4 159.7 145.2 148.3 159.7 140.4 172.3 133.6 186.2 129.1 200.4 126.7 200.5 126.7 200.5 127 200.5 127 201.8 137 202 147.3 200.2 157.3 198.5 166.9 194.9 176.1 189.3 184 182.2 194.1 172.2 201.5 161.2 206.8 167.6 201.3 173.4 195.2 178.5 188.4 180.4 185.9 178.8 182.6 176.2 182 176 182 175.9 182 175.7 182 174.4 181.9 173.1 182.5 172.3 183.6 172.3 183.6 171.9 184.1 171.6 184.5 162 196.9 149.5 208.3 134.9 214.5 134.9 214.5 134.8 214.5 134.7 214.6 134 214.8 133.5 215.2 133.1 215.7 130 216.3 126.9 216.8 123.7 217.1 139.2 210 152.8 198.8 163.5 185.4 167.4 180.6 171 175.5 173.9 170 175.1 167.7 173.6 164.8 171.3 164.3 171 164.2 171 164.2 170.7 164.2 168.5 164.1 166.9 166.3 166.9 166.3 165.8 168.5 164.5 170.5 163.2 172.6 152.1 189.2 136.1 203.5 117.5 211.3 117.1 211.5 116.7 211.6 116.2 211.8ZM40.3 173L38.1 169.3C37.4 168.2 36.2 167.4 34.9 167.4 34.8 167.4 34.8 167.4 34.6 167.4 31.8 167.5 30.1 170.6 31.1 172.9 31.2 173 31.2 173.1 31.4 173.3L33.5 177C34.4 178.4 35.9 179.1 37.5 178.9 40 178.6 41.5 175.6 40.5 173.4 40.5 173.3 40.4 173.2 40.3 173ZM178.1 180.1C179.7 181.7 182.6 181.5 184 179.9 184.1 179.7 184.1 179.7 184.3 179.4L186.6 175.8C186.6 175.7 186.6 175.7 186.7 175.7 188 173.3 186.3 170.2 183.9 169.8 183.7 169.8 183.7 169.8 183.4 169.8 183.3 169.7 183.3 169.7 183.3 169.7 181.9 169.8 180.7 170.5 179.9 171.6L177.6 175.2C176.7 176.8 176.9 178.8 178.1 180.1ZM37.8 158.9C39.1 160.8 41.8 161.2 43.5 159.9 44.9 158.8 45.4 156.7 44.6 155 44.6 154.9 44.5 154.8 44.4 154.6L41.9 150.9C41.2 149.8 40 149.2 38.8 149.1 38.7 149.1 38.7 149.1 38.6 149.1 35.5 149.2 33.9 152.9 35.4 155.2L37.8 158.9ZM180.6 161.2L183.1 157.6C184.9 155.1 182.9 151.5 180.1 151.4 180 151.4 180 151.4 179.9 151.4 178.7 151.4 177.5 152 176.7 153.1L174.2 156.7C173.2 158 173.2 159.7 174 161 175.4 163.3 179.1 163.3 180.6 161.2ZM47.3 98.2C47.7 99.5 48.8 100.4 50 100.8 52.3 101.4 54.7 99.6 54.9 97.4 55.1 96.4 54.7 95.5 54.4 94.5 53.8 93 52.3 91.9 50.7 91.8 50.7 91.8 50.6 91.8 50.6 91.8 48.5 91.9 46.8 93.6 46.7 95.5 46.7 96.4 47 97.3 47.3 98.2ZM172.1 101.6C172.8 101 173.1 100 173.4 99 174.3 96.5 172.3 93.8 169.9 93.8 168.6 93.7 167.3 94.3 166.6 95.3 165.7 96.5 165.1 98.5 165.6 100.1 166.5 102.8 170.2 103.5 172.1 101.6ZM61.9 99.6C62.2 100.6 63 101.5 64 101.9 66 102.8 68.6 101.7 69.3 99.7 69.7 98.5 69.3 97.2 68.9 95.9 68.4 94.3 66.9 93.3 65.3 93.2 65.2 93.2 65.2 93.2 65.1 93.2 63.1 93.3 61.4 95 61.3 97 61.2 97.9 61.6 98.7 61.9 99.6ZM151 101C151.9 103.8 155.6 104.5 157.5 102.6 158.2 101.9 158.5 100.9 158.9 100 159.7 97.4 157.7 94.8 155.3 94.7 154 94.7 152.7 95.3 152 96.3 151.1 97.5 150.5 99.5 151 101ZM74.1 58C76.1 58.6 78.5 57.4 79.1 55.4 79.4 54.4 79.2 53.3 79 52.3 78.7 50.4 77 49 75.2 48.9 75.2 48.9 75.1 48.9 75.1 48.9 73.3 48.9 71.7 50.3 71.3 52 71.1 52.9 71.3 53.9 71.4 54.9 71.7 56.3 72.7 57.6 74.1 58ZM144.3 58.8C146.1 59.9 148.7 59.3 149.7 57.5 150.2 56.7 150.3 55.7 150.5 54.7 150.9 52.4 149 50.2 146.7 50.1 145.3 50.1 143.8 50.9 143.1 52.2 142.7 53 142.6 53.9 142.5 54.8 142.3 56.4 143 58 144.3 58.8ZM88.7 69C90.8 69.5 93 68.1 93.5 66.1 93.7 65.1 93.5 64.1 93.4 63.1 93.1 61.3 91.4 59.9 89.6 59.8 88.1 59.8 86.7 60.6 86 61.8 85.4 63 85.6 64.4 85.8 65.7 86 67.3 87.2 68.6 88.7 69ZM130.1 69.5C131.8 70.2 133.9 69.6 134.9 68.1 135.5 67.3 135.6 66.2 135.8 65.1 136.2 62.8 134.3 60.6 132 60.6 130.6 60.5 129.1 61.4 128.5 62.6 128 63.4 128 64.3 127.8 65.3 127.5 67 128.5 68.8 130.1 69.5ZM40.8 111.5C42.8 112.4 45.4 111.3 46.1 109.2 46.6 108 46.2 106.7 45.8 105.5 45.2 103.9 43.7 102.8 42.1 102.8 40.5 102.8 38.9 103.9 38.3 105.4 37.9 106.6 38.3 107.9 38.7 109.2 39.1 110.2 39.8 111.1 40.8 111.5ZM180.3 112.9C181 112.2 181.4 111.2 181.7 110.2 182.6 107.7 180.6 105.1 178.1 105 176.9 104.9 175.6 105.5 174.8 106.5 174 107.7 173.3 109.7 173.8 111.3 174.7 114 178.5 114.7 180.3 112.9ZM113.7 114.9C114 112.5 112.1 110.4 109.9 110.3 109.8 110.3 109.8 110.3 109.7 110.3 107.8 110.4 106.2 111.8 105.9 113.6L105.2 117.8C105.2 117.9 105.2 117.9 105.2 118 105 119.7 106 121.4 107.5 122.1 109.6 123 112.3 121.7 112.9 119.6 112.9 119.4 112.9 119.3 113 119.1L113.7 114.9ZM100.7 121C101.1 118.6 99.1 116.5 96.9 116.4 96.8 116.4 96.8 116.4 96.8 116.4 94.9 116.4 93.2 117.9 92.9 119.7L92.2 123.9C92.2 124 92.2 124 92.2 124.1 92 125.7 93 127.5 94.5 128.1 96.7 129.1 99.3 127.8 99.9 125.6 100 125.5 100 125.4 100 125.2L100.7 121ZM127.3 124.5L126.7 120.3C126.5 118.5 124.8 117 123 116.9 122.9 116.9 122.9 116.9 122.8 116.9 120.5 116.9 118.7 119.1 118.9 121.3L119.5 125.6C119.5 125.6 119.5 125.6 119.5 125.7 119.8 127.8 122 129.3 124 128.9 125.8 128.6 127.3 126.9 127.3 125 127.3 124.9 127.3 124.8 127.3 124.5ZM54.8 158L57 161.7C57.8 163.1 59.3 163.8 60.9 163.6 63.4 163.2 64.9 160.3 63.9 158.1 63.9 157.9 63.9 157.9 63.7 157.7L61.5 153.9C60.9 152.8 59.6 152.1 58.3 152 58.2 152 58.2 152 58 152 55.3 152.1 53.5 155.3 54.6 157.6 54.6 157.7 54.6 157.7 54.8 158ZM161.1 163.8C161.2 163.7 161.2 163.6 161.4 163.4L163.7 159.7C163.7 159.7 163.7 159.7 163.8 159.6 165.1 157.2 163.4 154.1 160.9 153.7 160.8 153.7 160.7 153.7 160.5 153.7 160.4 153.7 160.4 153.7 160.3 153.7 159 153.7 157.7 154.4 157 155.5L154.7 159.2C153.5 161.1 154.2 163.6 156.1 164.7 157.7 165.6 159.9 165.2 161.1 163.8ZM97.3 34.4C97.3 34.4 97.3 34.4 97.2 34.4 95.5 34.4 93.9 35.6 93.5 37.1 93.1 38.2 93.3 39.5 93.4 40.7 93.5 42.5 94.8 44 96.5 44.4 98.3 44.8 100.3 43.7 100.9 42 101.4 40.8 101.2 39.5 101.1 38.1 101 36.1 99.3 34.4 97.3 34.4ZM123.1 44.6C125 45.5 127.5 44.6 128.4 42.8 128.9 41.7 128.8 40.3 128.9 39 129 36.9 127.2 35 125.1 34.9 125.1 34.9 125.1 34.9 125 34.9 123.4 34.9 121.9 35.9 121.3 37.3 120.9 38.4 121 39.7 120.9 40.9 120.8 42.4 121.8 44 123.1 44.6ZM115.5 28.5C116 27.4 115.9 26.1 116 24.8 116.1 22.6 114.3 20.7 112.2 20.6 112.1 20.6 112.1 20.6 112.1 20.6 110.5 20.6 109 21.6 108.4 23.1 108 24.1 108 25.4 108 26.6 107.9 28.2 108.8 29.7 110.2 30.4 112.1 31.3 114.6 30.3 115.5 28.5Z"
                />
              </svg>