<svg
    xmlns="http://www.w3.org/2000/svg"
    width="222"
    height="240"
    viewBox="0 0 222 240"
    fill="none"
    class="hops"
  >
    <path
      d="M41.7 174.5C41.8 175.3 42.2 176.2 42.2 176.2 43.4 178.2 44.6 180.1 45.9 182 57.9 199.1 74.4 213.4 93.9 221.5 90.8 221.3 87.7 220.9 84.6 220.5 84.4 220.2 84.2 220 84 219.9 83.6 219.6 83.1 219.4 83.1 219.4 78.8 217.8 74.7 215.7 70.8 213.3 61.1 207.2 52.2 199.3 44.8 190.3 43.9 189.2 42.7 188.3 41.3 188.2 41.2 188.2 41.1 188.2 40.6 188.3 37.9 188.7 36.6 192.1 37.9 194.2 38 194.4 38 194.4 38.2 194.6 38.2 194.6 38.6 195.2 38.9 195.5 44 201.6 49.6 207.3 55.8 212.3 51.1 210.2 46.5 207.7 42.2 204.8 33.5 198.8 26.3 190.8 21.5 181.5 14.1 167 12.6 150.3 14.2 134.1 14.2 134 14.2 133.9 14.2 133.9 14.8 134 15.5 134.1 16.1 134.2 36.9 137.1 58.1 144.7 74.5 158.6 81.4 164.4 87.2 171.3 91.6 179.1 95.9 186.6 98.6 194.9 100.1 203.5 88.6 197.9 78.8 188.9 70.8 178.8 69 176.5 67.6 173.8 65.1 173.7 65 173.8 64.8 173.7 64.4 173.8 62.7 174.1 61.4 175.5 61.2 177.2 61 178.6 61.8 179.9 61.8 179.9 62.3 180.6 62.8 181.3 63.3 181.9 73.1 195 86 206.6 101.2 212.6 101.3 213.7 101.4 214.8 101.4 216 86.1 210.5 72.3 200.6 61.2 188.5 56.8 183.6 52.7 178.4 49.4 172.8 48.6 171.4 47.3 170.4 45.8 170.3 45.6 170.3 45.5 170.2 45 170.3 43 170.7 41.6 172.6 41.7 174.5ZM124 140.3C123.7 138.7 122.7 137.2 121.2 136.7 120.9 136.6 120.8 136.6 120.1 136.6 119.9 136.6 119.8 136.5 119.4 136.6 117.8 136.9 116.4 138.2 116.1 139.8 116.1 140.2 116 140.4 116.1 141.1 116.1 141.1 116.2 141.6 116.2 142 117.6 152.1 117.6 162.5 115.9 172.7 115.8 172.8 115.8 173 115.8 173.1 115.7 173.5 115.7 173.9 115.8 174.4 112.7 181.5 110.7 189.1 109.7 196.8 107.9 177.2 107.7 157.4 108.3 137.7 108.3 136.8 108.5 135.9 108.3 135 108.1 134.1 107.5 133.2 106.8 132.7 106.1 132.1 105.9 132.1 105.1 131.9 104.4 131.9 103.8 131.9 103.2 132.1 102.3 132.4 101.5 133 101 133.8 100.9 134.1 100.8 134.4 100.6 134.7L100.5 135.7 100.5 136C100 150.4 100 165 100.7 179.6 100 178.1 99.3 176.7 98.5 175.2 98.5 174.6 98.4 174.1 98.4 174.1 95.5 163.8 94.3 153 94.8 142.4 94.9 140.5 93.9 138.8 92.2 138.2 91.8 138 91.6 138 90.9 137.9 90.7 137.9 90.6 137.9 90.2 138 88.8 138.2 87.6 139.2 87.2 140.5 87 141 86.9 141.7 86.9 141.7 86.9 142.3 86.9 142.9 86.8 143.5 86.7 149.1 87 154.8 87.7 160.3 83.8 156.2 79.7 152.4 75.1 149 75.2 148.8 75.2 148.6 75.2 148.6 75.7 139.4 77.3 129.7 82.1 121.7 87 113.7 94.4 107.7 102.6 103.3 102.8 103.1 103.1 103 103.4 102.8 109.3 105.2 115 108.3 119.9 112.5 129.7 120.7 134.1 132.4 136 144.3 136.1 144.9 136.2 145.5 136.4 146.1 135.7 146.7 134.9 147.3 134.3 148 130.9 151.2 127.9 154.7 125.1 158.4 125.2 152.4 124.8 146.3 124 140.3ZM116.9 215.3C116.9 214.1 116.8 213 116.8 211.9 121.3 209.6 125.4 206.7 129.3 203.5 138.6 195.9 146.5 186.4 152.5 175.7 152.6 175.7 152.6 175.6 152.7 175.5 154 173.1 152.3 170 149.8 169.6 149.6 169.6 149.5 169.6 149.3 169.6 147.3 169.6 145.8 171.7 145.8 171.7 145.4 172.4 145 173.1 144.5 173.8 137.7 185 128.5 195.6 117 202.7 117.7 194 119.6 185.4 123.1 177.4 129.7 162.2 141.8 149.9 155.7 141.2 167.8 133.6 181.3 128.1 195.4 124.8 195.5 124.8 195.5 125 195.5 125 197.5 135 198.4 145.3 197.2 155.4 196.2 165 193.2 174.4 188.1 182.7 181.6 193.2 172.1 201.3 161.6 207.3 167.6 201.4 173 194.9 177.6 187.8 179.3 185.2 177.5 181.9 174.9 181.6 174.7 181.6 174.6 181.6 174.4 181.6 173 181.6 171.8 182.3 171.1 183.4 171.1 183.4 170.7 184 170.4 184.4 161.6 197.3 149.9 209.6 135.8 216.7 135.8 216.7 135.7 216.7 135.6 216.8 135 217.1 134.5 217.5 134.1 218.1 131.1 218.8 127.9 219.5 124.8 220.1 139.8 212 152.6 199.9 162.5 185.8 166 180.7 169.3 175.4 171.8 169.8 172.8 167.4 171.2 164.6 168.8 164.2 168.6 164.2 168.5 164.2 168.2 164.2 166 164.2 164.6 166.6 164.6 166.6 163.6 168.8 162.5 170.9 161.3 173 151.3 190.4 136.3 205.7 118.3 214.7 117.8 214.9 117.4 215 116.9 215.3ZM38.7 181.6L36.3 178C35.5 176.9 34.2 176.3 32.9 176.3 32.8 176.3 32.8 176.3 32.6 176.3 29.9 176.6 28.4 179.8 29.5 182.1 29.6 182.2 29.6 182.2 29.8 182.5L32.2 186C33.1 187.4 34.7 188 36.3 187.6 38.7 187.1 40.1 184.1 38.9 182 38.9 181.8 38.8 181.8 38.7 181.6ZM176.7 179.5C178.3 181 181.2 180.7 182.5 178.9 182.6 178.8 182.6 178.7 182.8 178.5L184.8 174.7C184.9 174.6 184.9 174.6 184.9 174.6 186.1 172.1 184.2 169.1 181.7 168.9 181.6 168.9 181.5 168.9 181.3 168.9 181.2 168.9 181.2 168.9 181.1 168.9 179.8 169 178.6 169.8 177.9 170.9L175.9 174.7C175 176.3 175.4 178.3 176.7 179.5ZM35.3 167.7C36.6 169.4 39.4 169.7 41 168.3 42.3 167.1 42.7 164.9 41.8 163.3 41.7 163.2 41.7 163.1 41.5 162.9L38.9 159.4C38.1 158.4 36.8 157.8 35.6 157.8 35.5 157.8 35.5 157.8 35.4 157.8 32.3 158.1 30.9 161.9 32.6 164.2L35.3 167.7ZM177.9 160.5L180.2 156.8C181.8 154.1 179.5 150.7 176.7 150.8 176.7 150.8 176.7 150.8 176.6 150.8 175.3 150.9 174.2 151.6 173.5 152.7L171.2 156.4C170.3 157.8 170.4 159.5 171.3 160.8 172.9 163 176.5 162.7 177.9 160.5ZM108.1 118.7C108.3 116.4 106.2 114.3 104 114.4 103.9 114.4 103.9 114.4 103.8 114.4 101.9 114.6 100.4 116.1 100.2 118L99.8 122.2C99.8 122.3 99.8 122.3 99.8 122.4 99.7 124.1 100.8 125.7 102.4 126.3 104.6 127.1 107.1 125.6 107.6 123.4 107.6 123.3 107.6 123.2 107.7 123L108.1 118.7ZM95.5 125.6C95.7 123.3 93.7 121.3 91.4 121.3 91.4 121.3 91.4 121.3 91.3 121.3 89.4 121.5 87.9 123.1 87.7 124.9L87.3 129.1C87.3 129.2 87.3 129.2 87.3 129.3 87.2 131 88.3 132.6 89.8 133.2 92 134 94.6 132.5 95 130.3 95.1 130.2 95.1 130.1 95.1 129.9L95.5 125.6ZM122.3 127.5L121.5 123.3C121.1 121.4 119.4 120.1 117.5 120.1 117.4 120.1 117.4 120.1 117.3 120.1 115 120.3 113.3 122.6 113.7 124.8L114.6 129C114.6 129.1 114.6 129.1 114.6 129.1 115.1 131.2 117.3 132.5 119.3 132.1 121.1 131.6 122.5 129.8 122.3 127.9 122.3 127.8 122.3 127.7 122.3 127.5ZM52.1 165.6L54.6 169.1C55.5 170.5 57.1 171.1 58.6 170.8 61.1 170.3 62.4 167.2 61.3 165.1 61.2 165 61.2 164.9 61.1 164.7L58.6 161.1C57.9 160 56.6 159.4 55.2 159.4 55.1 159.4 55.1 159.4 54.9 159.4 52.2 159.7 50.7 163 51.9 165.2 52 165.3 52 165.4 52.1 165.6ZM158.6 164.4C158.7 164.3 158.7 164.2 158.9 164L160.9 160.2C160.9 160.1 161 160.1 161 160 162.2 157.6 160.3 154.6 157.8 154.4 157.7 154.3 157.6 154.3 157.3 154.3 157.3 154.3 157.3 154.3 157.2 154.4 155.9 154.5 154.6 155.2 154 156.4L151.9 160.2C150.9 162.2 151.8 164.7 153.7 165.6 155.3 166.4 157.5 165.9 158.6 164.4Z"
    />
    <line x1="99.5" y1="12" x2="99.5" y2="13" />
</svg>